<svg width="72" height="72" viewBox="0 0 72 72" fill="none" xmlns="http://www.w3.org/2000/svg">
<path d="M33.4813 21.6048H19.2298V26.3555H33.4813V21.6048Z" fill="white"/>
<path d="M33.4813 31.1055H19.2298V35.8563H33.4813V31.1055Z" fill="white"/>
<path d="M38.2313 40.6063H19.2298V45.3577H38.2313V40.6063Z" fill="white"/>
<path d="M42.982 50.1078H19.2298V54.8578H42.982V50.1078Z" fill="white"/>
<path d="M52.4828 17.0928V12.1033C52.4828 9.49172 50.3444 7.35257 47.7328 7.35257H14.479C11.8675 7.35257 9.72831 9.49101 9.72831 12.1033V59.6085C9.72831 62.2201 11.8675 64.3593 14.479 64.3593H47.7328C50.3444 64.3593 52.4828 62.2201 52.4828 59.6092V40.3683C57.9034 39.2659 61.9843 34.476 61.9843 28.7305C61.9843 22.985 57.9034 18.1951 52.4828 17.0928ZM47.7328 59.6092H14.479V12.104H47.7328V17.0935C42.3122 18.1951 38.2313 22.985 38.2313 28.7305C38.2313 34.476 42.3122 39.2659 47.7328 40.3683V59.6092ZM49.2677 33.9801L42.9699 27.6802L45.4889 25.1612L49.2677 28.94L54.726 23.4817L57.2449 26.0007L49.2677 33.9801Z" fill="white"/>
</svg>
