<svg width="73" height="72" viewBox="0 0 73 72" fill="none" xmlns="http://www.w3.org/2000/svg">
<path d="M64.367 37.1248L57.6496 30.4031C56.7261 29.4796 55.214 29.4796 54.2912 30.4073L32.914 51.7789L30.4135 64.3558L42.9898 61.8547L64.3663 40.4831C65.2905 39.5604 65.2905 38.0483 64.367 37.1248ZM40.6525 57.4773L36.4583 58.3125L37.2935 54.1175L55.9708 35.4459L59.332 38.8043L40.6525 57.4773Z" fill="white"/>
<path d="M24.6804 59.6107H12.8047V12.1019H29.4312V23.9798C29.4312 26.6013 31.5575 28.7305 34.1812 28.7305L50.8077 28.7284V23.9798L34.1812 7.35184H12.8047C10.181 7.35184 8.05392 9.47887 8.05392 12.1026V59.6114C8.05392 62.2322 10.181 64.3614 12.8047 64.3614H24.6804V59.6107ZM34.1812 14.0686L44.0903 23.9798H34.1812V14.0686Z" fill="white"/>
</svg>
