<svg width="72" height="72" viewBox="0 0 72 72" fill="none" xmlns="http://www.w3.org/2000/svg">
<path d="M50.1078 50.1085H31.1055V54.8592H50.1078V50.1085Z" fill="white"/>
<path d="M50.1078 40.6063H31.1055V45.357H50.1078V40.6063Z" fill="white"/>
<path d="M35.8563 31.1055H31.1055V35.8556H35.8563V31.1055Z" fill="white"/>
<path d="M50.1078 21.6041V12.1033C50.1078 9.47747 47.9786 7.35257 45.3571 7.35257H16.8541C14.2304 7.35257 12.104 9.48174 12.104 12.1033V50.1085C12.104 52.7343 14.2304 54.8592 16.8541 54.8592H21.6048V59.6092C21.6048 62.2308 23.7318 64.36 26.3555 64.36H54.8585C57.4794 64.36 59.6086 62.2358 59.6086 59.6092V31.1055L50.1078 21.6041ZM52.8911 31.1055H45.3571V23.5736L52.8911 31.1055ZM21.6048 21.6041V50.1085H16.8541V12.1033H45.3571V16.854H26.3555C23.7318 16.854 21.6048 18.9782 21.6048 21.6041ZM54.8585 59.6092H26.3555V21.6041H40.607V31.1055C40.607 33.7264 42.7334 35.8556 45.3571 35.8556H54.8585V59.6092Z" fill="white"/>
</svg>
