<svg width="93" height="107" viewBox="0 0 93 107" fill="none" xmlns="http://www.w3.org/2000/svg">
<g clip-path="url(#clip0_76_456)">
<path d="M1.08769 26.9845C1.08769 26.9845 1.236 27.3406 1.51137 28.0159C1.79901 28.6841 2.16015 29.678 2.75264 30.9308C3.30477 32.1988 4.05379 33.6803 4.92063 35.3801C5.38295 36.2092 5.88069 37.0996 6.39708 38.0366C6.96256 38.9451 7.53182 39.917 8.16528 40.9008C9.44801 42.8676 10.8693 44.9752 12.5507 47.0798C14.2075 49.1987 16.063 51.35 18.0976 53.4716C20.1174 55.6099 22.3424 57.6787 24.685 59.6961C27.0127 61.7303 29.5435 63.6062 32.1267 65.4029C34.7072 67.2092 37.4449 68.7776 40.1682 70.2644C42.895 71.7573 45.6979 72.9854 48.4432 74.0996C49.8267 74.6258 51.1848 75.1505 52.5493 75.5731C53.8974 76.0381 55.2346 76.4275 56.5419 76.7933C57.8465 77.1688 59.1445 77.4337 60.3847 77.74C61.6379 77.998 62.8514 78.2299 64.0146 78.4171C65.1856 78.5753 66.3023 78.7812 67.3834 78.8686C68.4583 78.9596 69.4745 79.0763 70.4333 79.1362C71.3938 79.1706 72.291 79.2088 73.1215 79.2446C73.9509 79.2646 74.7169 79.2313 75.4022 79.2283C76.0911 79.2314 76.7086 79.2102 77.2391 79.1656C77.7731 79.1272 78.222 79.0971 78.5917 79.0718C79.3242 79.0087 79.7159 78.9789 79.7159 78.9789C80.0857 78.9535 80.361 78.6228 80.3356 78.253C80.3096 77.9246 80.0501 77.6735 79.7372 77.6416L79.7117 77.6399C79.7117 77.6399 79.3285 77.5994 78.6033 77.5192C77.8842 77.4354 76.8331 77.3716 75.496 77.1948C74.8279 77.1143 74.093 77.0315 73.2878 76.9402C72.4842 76.8234 71.6262 76.6972 70.7013 76.5686C68.8603 76.2983 66.7939 75.9209 64.5489 75.4749C63.4276 75.2471 62.2771 74.9543 61.0688 74.7032C59.8786 74.3843 58.6342 74.113 57.3831 73.7312C54.8515 73.058 52.2311 72.1744 49.5514 71.2023C48.88 70.9601 48.2128 70.6828 47.5368 70.4187C46.8547 70.1582 46.1814 69.8844 45.5097 69.5852C44.8354 69.2956 44.1514 69.0035 43.4674 68.7113C42.7948 68.3962 42.1125 68.0786 41.4363 67.7574C38.7357 66.4374 36.0285 65.0068 33.4277 63.3921C30.8269 61.7774 28.2749 60.0773 25.8996 58.2015C23.5339 56.3283 21.2481 54.4091 19.2182 52.3666C18.6967 51.8742 18.1963 51.3616 17.7117 50.848C17.227 50.3344 16.7398 49.8305 16.2648 49.3196C15.3578 48.2728 14.4343 47.2683 13.6258 46.2219C11.9359 44.1876 10.5052 42.1345 9.21307 40.2223C8.58056 39.2542 8.02192 38.3008 7.46707 37.4106C6.95516 36.4956 6.46805 35.6236 6.00927 34.8006C5.5847 33.9661 5.18847 33.1806 4.82766 32.4565C4.46684 31.7324 4.19052 31.0413 3.91281 30.4328C3.35479 29.2254 2.98916 28.2096 2.7296 27.5334C2.4665 26.851 2.33045 26.4879 2.33045 26.4879C2.20504 26.1431 1.81679 25.9665 1.46946 26.1016C1.12214 26.2367 0.951643 26.6214 1.08674 26.9687L1.09382 26.981" fill="white"/>
<path d="M76.5238 87.1772C77.079 86.7504 77.6466 86.3736 78.2046 85.9942C78.7793 85.6296 79.3673 85.2738 79.9562 84.9338C81.1401 84.2502 82.3737 83.6526 83.6268 83.1172C84.2582 82.8508 84.8941 82.6063 85.5371 82.3742C86.1801 82.142 86.8346 81.944 87.4795 81.7435C88.7896 81.3634 90.1141 81.0649 91.444 80.8042C92.0997 80.6791 92.5309 80.0376 92.4059 79.3818C92.351 79.1027 92.2103 78.8731 92.0127 78.7009L91.8619 78.5671L90.4753 77.3556C90.007 76.9553 89.5571 76.5443 89.0862 76.1537C88.6153 75.763 88.1592 75.3556 87.6883 74.965L86.2817 73.7896C85.3399 73.0083 84.3719 72.2667 83.3583 71.5595C82.3422 70.862 81.2989 70.1884 80.1332 69.6427C79.7837 69.4764 79.3337 69.6463 79.1613 69.9993C79.063 70.2115 79.0404 70.4699 79.1502 70.6601L79.1573 70.6724C79.4832 71.2367 79.8904 71.7296 80.2731 72.2366C80.6706 72.7268 81.0866 73.2065 81.5139 73.6632C82.3658 74.5863 83.2895 75.4353 84.2542 76.2279C85.2251 77.017 86.2108 77.7893 87.2314 78.5087C88.2494 79.2378 89.2937 79.9272 90.3553 80.5902L90.7732 78.3532C90.1022 78.5934 89.4417 78.852 88.7787 79.1203C88.1254 79.3912 87.473 79.6779 86.8302 79.9672C86.1875 80.2565 85.5493 80.5677 84.9136 80.8693C84.278 81.1708 83.653 81.4908 83.0218 81.8143C82.3968 82.1342 81.7824 82.4726 81.1645 82.8048L79.3355 83.8444C78.7281 84.1951 78.0996 84.5089 77.5064 84.8841L75.7013 85.9508L75.689 85.9579C75.37 86.1421 75.3168 86.6308 75.5133 86.9427C75.7097 87.2546 76.1425 87.381 76.4606 87.181C76.479 87.1704 76.5116 87.1843 76.53 87.1737" fill="white"/>
</g>
<defs>
<clipPath id="clip0_76_456">
<rect width="92.4318" height="53.8837" fill="white" transform="matrix(0.5 0.866025 0.866025 -0.5 0 26.9419)"/>
</clipPath>
</defs>
</svg>
