<svg width="28" height="27" viewBox="0 0 28 27" fill="none" xmlns="http://www.w3.org/2000/svg">
<path d="M22 4H14C13.45 4 13 4.45 13 5C13 6.65 11.65 8 10 8H6V2H10C10.53 2 11.05 2.14 11.5 2.4C11.98 2.68 12.59 2.51 12.87 2.04C13.15 1.56 12.98 0.95 12.51 0.67C11.75 0.23 10.89 0 10.01 0H5.01C4.46 0 4.01 0.45 4.01 1V2H1C0.45 2 0 2.45 0 3C0 3.55 0.45 4 1 4H4V6H1C0.45 6 0 6.45 0 7C0 7.55 0.45 8 1 8H4V9C4 9.55 4.45 10 5 10H10C12.41 10 14.43 8.28 14.9 6H22C24.21 6 26 7.79 26 10V11C26 13.21 24.21 15 22 15H6C2.69 15 0 17.69 0 21C0 24.31 2.69 27 6 27H23C23.55 27 24 26.55 24 26C24 25.45 23.55 25 23 25H6C3.79 25 2 23.21 2 21C2 18.79 3.79 17 6 17H22C25.31 17 28 14.31 28 11V10C28 6.69 25.31 4 22 4Z" fill="#FFCD02"/>
</svg>
